<mxfile host="app.diagrams.net" modified="2023-11-20T17:32:19.692Z" agent="Mozilla/5.0 (Windows NT 10.0; Win64; x64) AppleWebKit/537.36 (KHTML, like Gecko) Chrome/119.0.0.0 Safari/537.36" etag="2JQ2OU-eqSkOeiN15Ua0" version="22.1.3" type="github">
  <diagram id="C5RBs43oDa-KdzZeNtuy" name="Page-1">
    <mxGraphModel dx="1434" dy="758" grid="1" gridSize="10" guides="1" tooltips="1" connect="1" arrows="1" fold="1" page="1" pageScale="1" pageWidth="827" pageHeight="1169" math="0" shadow="0">
      <root>
        <mxCell id="WIyWlLk6GJQsqaUBKTNV-0" />
        <mxCell id="WIyWlLk6GJQsqaUBKTNV-1" parent="WIyWlLk6GJQsqaUBKTNV-0" />
        <mxCell id="WniCA2Gf39MnclZsc7Ap-36" style="edgeStyle=orthogonalEdgeStyle;rounded=0;orthogonalLoop=1;jettySize=auto;html=1;exitX=0.5;exitY=1;exitDx=0;exitDy=0;" edge="1" parent="WIyWlLk6GJQsqaUBKTNV-1" source="WniCA2Gf39MnclZsc7Ap-0" target="WniCA2Gf39MnclZsc7Ap-34">
          <mxGeometry relative="1" as="geometry" />
        </mxCell>
        <mxCell id="WniCA2Gf39MnclZsc7Ap-0" value="Start" style="rounded=1;whiteSpace=wrap;html=1;" vertex="1" parent="WIyWlLk6GJQsqaUBKTNV-1">
          <mxGeometry x="354" width="120" height="50" as="geometry" />
        </mxCell>
        <mxCell id="WniCA2Gf39MnclZsc7Ap-53" value="" style="edgeStyle=orthogonalEdgeStyle;rounded=0;orthogonalLoop=1;jettySize=auto;html=1;" edge="1" parent="WIyWlLk6GJQsqaUBKTNV-1" source="WniCA2Gf39MnclZsc7Ap-34" target="WniCA2Gf39MnclZsc7Ap-50">
          <mxGeometry relative="1" as="geometry" />
        </mxCell>
        <mxCell id="WniCA2Gf39MnclZsc7Ap-34" value="Num1" style="shape=card;whiteSpace=wrap;html=1;" vertex="1" parent="WIyWlLk6GJQsqaUBKTNV-1">
          <mxGeometry x="364" y="80" width="100" height="50" as="geometry" />
        </mxCell>
        <mxCell id="WniCA2Gf39MnclZsc7Ap-45" value="" style="edgeStyle=orthogonalEdgeStyle;rounded=0;orthogonalLoop=1;jettySize=auto;html=1;" edge="1" parent="WIyWlLk6GJQsqaUBKTNV-1" source="WniCA2Gf39MnclZsc7Ap-40">
          <mxGeometry relative="1" as="geometry">
            <mxPoint x="414" y="540" as="targetPoint" />
          </mxGeometry>
        </mxCell>
        <mxCell id="WniCA2Gf39MnclZsc7Ap-58" value="" style="edgeStyle=orthogonalEdgeStyle;rounded=0;orthogonalLoop=1;jettySize=auto;html=1;" edge="1" parent="WIyWlLk6GJQsqaUBKTNV-1" source="WniCA2Gf39MnclZsc7Ap-40" target="WniCA2Gf39MnclZsc7Ap-57">
          <mxGeometry relative="1" as="geometry" />
        </mxCell>
        <mxCell id="WniCA2Gf39MnclZsc7Ap-40" value="Is answer more than 100?&amp;nbsp;" style="rhombus;whiteSpace=wrap;html=1;" vertex="1" parent="WIyWlLk6GJQsqaUBKTNV-1">
          <mxGeometry x="347" y="350" width="134" height="100" as="geometry" />
        </mxCell>
        <mxCell id="WniCA2Gf39MnclZsc7Ap-54" value="" style="edgeStyle=orthogonalEdgeStyle;rounded=0;orthogonalLoop=1;jettySize=auto;html=1;" edge="1" parent="WIyWlLk6GJQsqaUBKTNV-1" source="WniCA2Gf39MnclZsc7Ap-50">
          <mxGeometry relative="1" as="geometry">
            <mxPoint x="414" y="346" as="targetPoint" />
          </mxGeometry>
        </mxCell>
        <mxCell id="WniCA2Gf39MnclZsc7Ap-50" value="&amp;nbsp;Answer =&lt;br&gt;Num1* Num2" style="whiteSpace=wrap;html=1;" vertex="1" parent="WIyWlLk6GJQsqaUBKTNV-1">
          <mxGeometry x="354" y="200" width="120" height="60" as="geometry" />
        </mxCell>
        <mxCell id="WniCA2Gf39MnclZsc7Ap-56" value="Yayyyy" style="shape=document;whiteSpace=wrap;html=1;boundedLbl=1;" vertex="1" parent="WIyWlLk6GJQsqaUBKTNV-1">
          <mxGeometry x="354" y="540" width="140" height="60" as="geometry" />
        </mxCell>
        <mxCell id="WniCA2Gf39MnclZsc7Ap-57" value="Buuuuu" style="shape=document;whiteSpace=wrap;html=1;boundedLbl=1;" vertex="1" parent="WIyWlLk6GJQsqaUBKTNV-1">
          <mxGeometry x="550" y="370" width="140" height="60" as="geometry" />
        </mxCell>
      </root>
    </mxGraphModel>
  </diagram>
</mxfile>
